<svg fill="none" height="41" viewBox="0 0 69 41" width="69" xmlns="http://www.w3.org/2000/svg" xmlns:xlink="http://www.w3.org/1999/xlink"><clipPath id="a"><path d="m0 0h69v41h-69z"/></clipPath><g clip-path="url(#a)" fill="#fff"><path d="m9.05214 8.32823c0-.18903.07208-.37032.20038-.50399.12831-.13366.30233-.20875.48378-.20875h19.322c.0902.00077.1797-.01712.2633-.05261.0835-.0355.1595-.08791.2234-.1542.064-.06628.1147-.14513.1493-.23198.0345-.08684.0521-.17995.0519-.27395v-6.197746c-.002-.188357-.0754-.368246-.2043-.50035-.1289-.1321034-.3028-.20567807-.4836-.20464323h-28.374138c-.181451 0-.35547.07509203-.483776.20875723-.1283048.133664-.200386.314953-.200386.503983v12.782849h9.05214z"/><path d="m69 .71274c0-.18903-.0721-.370318-.2004-.503983-.1283-.1336649-.3023-.208757-.4838-.208757h-7.6224c-.1815 0-.3555.0750921-.4838.208757-.1283.133665-.2004.314953-.2004.503983v12.78286h8.9964z"/><path d="m60.0036 22.9007c.0003.147-.0431.2905-.1244.4107-.0812.1202-.1962.2112-.3291.2605-.133.0493-.2773.0544-.4132.0147-.1358-.0397-.2565-.1224-.3454-.2365l-4.0213-5.1151h-11.1939l17.7399 22.5055c.0642.0812.1448.1466.2361.1914.0913.0449.1909.0682.2919.0682h6.4716c.0898.0002.1787-.018.2617-.0536s.1584-.0879.222-.1539c.0636-.0661.114-.1445.1484-.2309.0344-.0863.0521-.1789.0521-.2724v-22.0543h-8.9964z"/><path d="m40.6426.261468c-.0638-.081822-.1443-.147765-.2356-.1930048-.0914-.0452394-.1913-.0686306-.2924-.0684623h-6.5274c-.1809.0010237-.3539.0765674-.4814.2101211-.1275.133554-.1991.314258-.1991.502619v12.782859h18.1452z"/><path d="m36.9689 18.235h-36.9689v22.0504c-.00000033.0935.0177094.1861.0521145.2725.0344052.0863.0848295.1648.1483845.2308s.138991.1183.221986.1539c.082996.0357.17192.0539.261677.0536h29.104738c.0898.0003.1787-.0179.2617-.0536.083-.0356.1585-.0879.222-.1539.0636-.066.114-.1445.1484-.2308.0344-.0864.0521-.179.0521-.2725v-6.1977c0-.0936-.0177-.1861-.0521-.2725s-.0848-.1648-.1484-.2308c-.0635-.0661-.139-.1184-.222-.154s-.1719-.0538-.2617-.0536h-20.0526c-.18145 0-.35547-.075-.48378-.2087-.1283-.1337-.20038-.315-.20038-.504v-8.0551c0-.0935.01771-.1861.05211-.2725.03441-.0863.08483-.1648.14839-.2308.06355-.0661.13899-.1184.22198-.154.083-.0356.17192-.0538.26168-.0535h23.1704v16.3872c0 .0935.0177.1861.0521.2725.0344.0863.0849.1648.1484.2308.0636.066.139.1183.222.1539.083.0357.1719.0539.2617.0536h7.6224c.181 0 .3545-.0749.4825-.2082s.1998-.3141.1998-.5026v-22.0504z"/></g></svg>