<?xml version="1.0" standalone="no"?>
<!DOCTYPE svg PUBLIC "-//W3C//DTD SVG 20010904//EN"
  "http://www.w3.org/TR/2001/REC-SVG-20010904/DTD/svg10.dtd">
<svg version="1.0" xmlns="http://www.w3.org/2000/svg"
  width="114.000000pt" height="66.000000pt" viewBox="0 0 114.000000 66.000000"
  preserveAspectRatio="xMidYMid meet">

<g transform="translate(0.000000,66.000000) scale(0.100000,-0.100000)"
fill="#000000" stroke="none">
<path d="M0 550 l0 -110 75 0 75 0 0 50 0 50 170 0 170 0 0 60 0 60 -245 0
-245 0 0 -110z"/>
<path d="M550 550 l0 -110 141 0 c116 0 140 2 136 14 -3 7 -41 57 -83 110
l-78 96 -58 0 -58 0 0 -110z"/>
<path d="M994 647 c-3 -8 -3 -56 -2 -108 l3 -94 73 -3 72 -3 0 111 0 110 -70
0 c-49 0 -72 -4 -76 -13z"/>
<path d="M0 180 l0 -180 250 0 250 0 0 60 0 60 -175 0 -175 0 0 80 0 80 198
-2 197 -3 3 -137 3 -138 69 0 70 0 0 180 0 180 -345 0 -345 0 0 -180z"/>
<path d="M772 306 c24 -30 88 -111 143 -180 l100 -125 63 0 62 -1 0 180 0 180
-75 0 -75 0 0 -40 c0 -22 -4 -40 -9 -40 -5 0 -24 18 -41 40 l-32 40 -90 0 -90
0 44 -54z"/>
</g>
</svg>
